<svg width="15" height="20" xmlns="http://www.w3.org/2000/svg">

 <g>
  <title>background</title>
  <rect fill="none" id="canvas_background" height="22" width="17" y="-1" x="-1"/>
 </g>
 <g>
  <title>Layer 1</title>
  <path fill="#0072bb" d="m10,1c-0.5523,0 -1,0.4477 -1,1c0,0.5523 0.4477,1 1,1s1,-0.4477 1,-1c0,-0.5523 -0.4477,-1 -1,-1zm-1.8555,1.9941c-0.13,0.0005 -0.2547,0.0517 -0.3477,0.1426l-2.6406,2.5c-0.2256,0.2128 -0.2051,0.5775 0.043,0.7637l1.8008,1.3496l0,2.75c-0.01,0.6762 1.0096,0.6762 1,0l0,-3c0.0003,-0.1574 -0.0735,-0.3057 -0.1992,-0.4004l-0.7676,-0.5762l1.818,-1.7212l0.7484,0.9985c0.0947,0.1258 0.243,0.1996 0.4004,0.1993l1.5,0c0.6761,0.01 0.6761,-1.0096 0,-1l-1.25,0l-0.75,-1l-0.5996,-0.8008c-0.0901,-0.1236 -0.2319,-0.1992 -0.3848,-0.2051l-0.3711,0zm-5.1445,4.0059c-1.6569,0 -3,1.3432 -3,3s1.3431,3 3,3s3,-1.3432 3,-3s-1.3431,-3 -3,-3zm9,0c-1.6569,0 -3,1.3432 -3,3s1.3431,3 3,3s3,-1.3432 3,-3s-1.3431,-3 -3,-3zm-9,1c1.1046,0 2,0.8954 2,2s-0.8954,2 -2,2s-2,-0.8954 -2,-2s0.8954,-2 2,-2zm9,0c1.1046,0 2,0.8954 2,2s-0.8954,2 -2,2s-2,-0.8954 -2,-2s0.8954,-2 2,-2z" id="circle4604"/>
  <ellipse stroke="#0072bb" transform="rotate(-17.944595336914062 7.441114902496331,11.687166213989256) " ry="0.031607" rx="1.133761" id="svg_15" cy="11.687166" cx="7.441115" fill="#0072bb"/>
  <ellipse ry="3.30296" rx="0.031607" id="svg_16" cy="15.46563" cx="7.484196" stroke-width="null" stroke="#0072bb" fill="#0072bb"/>
  <ellipse ry="1.187495" rx="1.187495" id="svg_23" cy="18.343718" cx="7.468752" fill-opacity="null" stroke-opacity="null" stroke-width="null" stroke="#0072bb" fill="#0072bb"/>
 </g>
</svg>