<?xml version="1.0" standalone="no"?>
<!DOCTYPE svg PUBLIC "-//W3C//DTD SVG 20010904//EN"
 "http://www.w3.org/TR/2001/REC-SVG-20010904/DTD/svg10.dtd">
<svg version="1.0" xmlns="http://www.w3.org/2000/svg"
 width="1800.000000pt" height="1100.000000pt" viewBox="0 0 1800.000000 1100.000000"
 preserveAspectRatio="xMidYMid meet">
<metadata>
Created by potrace 1.13, written by Peter Selinger 2001-2015
</metadata>
<g transform="translate(0.000000,1100.000000) scale(0.100000,-0.100000)"
fill="#5b6c62" stroke="none">
<path d="M4549 9818 c-66 -62 -130 -179 -154 -282 -14 -61 -14 -71 5 -158 12
-51 32 -134 46 -185 l25 -92 -21 -40 c-11 -22 -29 -45 -41 -52 -11 -6 -30 -31
-40 -55 -18 -40 -19 -58 -13 -179 6 -122 5 -135 -10 -135 -26 0 -105 -79 -138
-137 -25 -45 -39 -57 -92 -83 -72 -34 -144 -105 -178 -175 l-22 -46 34 -127
35 -127 2 -325 3 -325 -45 -78 c-43 -73 -50 -79 -118 -113 -40 -20 -107 -57
-149 -82 l-78 -46 0 -72 0 -71 -59 -32 c-177 -94 -384 -252 -556 -425 -206
-208 -345 -399 -465 -641 -130 -262 -212 -542 -245 -836 -5 -49 -11 -61 -51
-100 l-44 -43 0 -76 0 -75 -148 -76 -147 -76 -5 -121 -5 -121 -45 -32 c-25
-17 -66 -48 -92 -67 l-48 -36 0 -106 0 -105 45 -27 45 -28 0 -307 0 -308 -176
-90 c-97 -49 -189 -99 -206 -111 l-31 -20 2 -164 c2 -165 9 -311 14 -316 2 -3
484 -6 578 -4 20 0 28 6 33 26 11 43 67 156 109 219 125 187 294 322 498 396
129 47 210 61 354 61 141 1 242 -16 352 -57 l64 -24 33 52 c18 29 74 116 123
193 l91 142 -72 240 -71 239 -61 5 c-100 9 -215 77 -275 165 -26 37 -29 47
-18 59 10 12 25 14 66 9 l52 -6 -28 63 c-57 125 -76 204 -76 318 1 119 18 170
79 229 30 29 33 37 29 75 -5 42 -3 46 64 122 329 373 786 621 1466 795 132 33
201 70 203 107 1 10 2 26 3 38 0 11 16 46 35 77 l35 57 -24 48 c-29 55 -58
163 -53 195 2 17 17 26 68 44 211 69 415 52 572 -48 111 -71 155 -162 145
-295 -6 -82 -18 -111 -48 -116 -18 -3 -21 -12 -24 -74 -7 -114 -50 -209 -145
-316 l-39 -45 -98 -5 c-54 -3 -106 -9 -115 -13 -16 -6 -16 -9 -1 -38 24 -48
99 -330 113 -427 27 -194 80 -449 110 -524 17 -44 47 -134 67 -200 39 -134 78
-237 122 -324 49 -97 52 -99 166 -106 55 -4 135 -9 178 -12 l77 -6 11 31 c8
22 17 31 32 31 37 0 48 -15 52 -66 3 -27 7 -74 11 -104 3 -30 9 -118 14 -195
5 -77 12 -151 16 -165 7 -24 7 -24 -17 -9 -13 8 -35 36 -47 62 -23 44 -23 50
-12 118 10 61 10 73 -3 86 -14 14 -20 13 -59 -8 -35 -20 -45 -32 -56 -69 -23
-77 -48 -113 -109 -157 -161 -115 -181 -125 -208 -103 -28 23 -18 58 23 79 20
10 45 28 55 39 17 19 17 21 -32 61 -61 51 -82 58 -190 60 -47 1 -88 4 -93 7
-16 10 -6 -23 61 -206 49 -136 71 -184 81 -181 8 1 57 14 108 27 389 99 814
-54 1059 -383 51 -69 143 -242 143 -269 0 -15 28 -31 50 -29 8 1 168 3 354 3
l339 2 -6 187 c-4 104 -7 214 -7 246 l0 57 -82 61 c-45 33 -117 81 -159 107
l-78 47 -1 308 0 307 45 28 45 27 0 105 0 106 -67 51 c-38 28 -80 58 -95 68
-27 17 -27 18 -30 137 l-3 120 -147 77 -148 76 0 80 0 79 -44 46 c-44 45 -44
46 -61 160 -91 644 -406 1195 -915 1602 -95 75 -239 174 -331 226 l-49 27 0
77 0 77 -57 34 c-32 20 -93 53 -136 74 -72 36 -83 46 -138 122 l-59 83 0 309
0 308 40 147 39 147 -21 40 c-33 65 -116 147 -182 178 -48 23 -64 37 -88 79
-36 63 -99 127 -134 136 l-26 7 7 136 c8 154 3 177 -51 227 -19 18 -41 48 -49
66 -12 29 -11 36 5 63 109 178 71 490 -78 648 -30 31 -58 57 -62 57 -4 0 -18
-10 -31 -22z"/>
<path d="M10933 7250 c-60 -12 -98 -35 -130 -76 -25 -33 -28 -46 -31 -135 -5
-122 1 -160 36 -200 33 -40 82 -62 199 -89 120 -28 136 -41 136 -110 0 -44 -4
-56 -24 -73 -22 -18 -34 -19 -129 -14 -58 3 -127 13 -155 21 -27 8 -50 14 -51
13 -1 -1 -8 -33 -17 -72 -19 -85 -18 -86 87 -110 140 -33 346 -18 414 30 57
41 87 188 63 306 -17 81 -68 120 -202 154 -35 9 -81 21 -101 26 -52 14 -68 33
-68 85 0 68 22 84 118 84 42 0 108 -5 146 -10 38 -6 70 -9 72 -7 6 6 24 150
20 155 -21 20 -307 37 -383 22z"/>
<path d="M13680 7245 c-78 -22 -129 -61 -162 -124 l-28 -53 0 -237 c0 -137 5
-252 11 -275 16 -57 80 -121 147 -146 71 -27 236 -29 357 -6 44 9 81 16 83 16
1 0 2 92 2 205 l0 206 -87 -3 -88 -3 -3 -132 -3 -133 -75 0 c-94 0 -129 16
-144 68 -7 23 -10 105 -8 220 l3 184 28 24 c25 21 37 24 115 23 48 0 117 -3
153 -7 l66 -8 12 79 c7 44 10 81 7 84 -26 26 -310 39 -386 18z"/>
<path d="M15155 7247 c-67 -18 -107 -40 -149 -83 -57 -59 -61 -82 -61 -349 0
-229 1 -242 22 -281 54 -100 153 -147 308 -147 147 1 241 44 293 132 l27 46 0
255 c0 245 -1 257 -22 297 -26 48 -68 83 -137 114 -60 26 -208 35 -281 16z
m207 -178 c41 -22 48 -59 48 -249 0 -199 -7 -228 -57 -248 -65 -26 -145 -19
-183 16 -29 25 -31 32 -37 117 -8 121 5 315 22 338 31 42 149 57 207 26z"/>
<path d="M8719 7243 c-1 -5 -1 -10 -1 -13 0 -5 176 -729 193 -792 l10 -38 123
0 124 0 17 78 c89 401 124 545 128 532 3 -8 33 -141 67 -295 34 -154 64 -288
66 -297 5 -16 20 -18 130 -18 68 0 124 3 124 8 0 4 45 190 100 415 55 224 100
411 100 415 0 5 -40 9 -90 10 -75 1 -91 -2 -98 -16 -5 -9 -37 -142 -73 -294
-35 -152 -67 -274 -70 -270 -3 4 -14 41 -23 82 -64 276 -108 458 -116 477 -8
20 -16 21 -120 22 -106 1 -111 0 -120 -21 -5 -13 -35 -129 -65 -258 -67 -281
-75 -313 -80 -309 -2 2 -34 132 -71 289 -37 157 -72 288 -78 292 -14 10 -176
10 -177 1z"/>
<path d="M10143 7238 c-6 -7 -63 -186 -127 -398 -64 -212 -121 -398 -126 -413
l-9 -28 102 3 102 3 20 75 20 75 142 3 141 3 16 -53 c8 -29 18 -65 21 -80 l7
-28 99 0 c54 0 99 4 99 9 0 22 -251 826 -260 831 -5 3 -60 7 -123 8 -84 2
-116 0 -124 -10z m177 -356 c23 -85 40 -156 37 -158 -2 -3 -45 -3 -94 -2 l-90
3 45 168 c26 95 49 162 53 155 4 -7 26 -82 49 -166z"/>
<path d="M11476 7243 c-3 -4 -6 -195 -6 -425 l0 -418 95 0 95 0 0 170 0 171
136 -3 136 -3 -1 -167 0 -168 99 0 100 0 -2 423 -3 422 -85 1 c-47 0 -91 -2
-97 -4 -10 -3 -13 -46 -13 -168 l0 -164 -135 0 -135 0 0 168 0 169 -89 1 c-49
0 -92 -2 -95 -5z"/>
<path d="M12290 6824 l0 -424 95 0 95 0 0 425 0 426 -95 -2 -95 -1 0 -424z"/>
<path d="M12651 7242 c-9 -3 -11 -110 -11 -423 l2 -419 94 0 94 0 0 273 1 272
135 -272 135 -273 120 0 119 0 0 424 0 423 -87 -1 -88 -1 -5 -285 -5 -285 -22
45 c-11 25 -73 153 -136 285 l-115 240 -109 0 c-61 1 -115 -1 -122 -3z"/>
<path d="M14194 7237 c-3 -8 -4 -47 -2 -88 l3 -74 112 0 113 0 0 -337 0 -338
100 0 101 0 -1 313 c0 171 0 323 0 337 l0 25 108 0 107 0 0 85 0 85 -318 2
c-258 2 -319 0 -323 -10z"/>
<path d="M15749 6848 c-1 -222 -3 -413 -4 -425 -2 -22 0 -23 91 -23 l94 0 1
273 0 272 137 -272 137 -273 118 0 117 0 -2 423 -3 422 -87 1 -88 1 0 -285 c0
-157 -3 -283 -6 -279 -3 3 -64 128 -136 279 -71 150 -134 275 -139 279 -5 3
-59 6 -119 8 l-110 2 -1 -403z"/>
<path d="M8981 5970 c-5 -4 -230 -728 -258 -830 -4 -13 11 -15 97 -15 l101 0
9 35 c5 19 15 56 22 83 l12 47 142 0 141 0 18 -67 c27 -102 20 -96 129 -97 53
-1 96 2 96 7 0 9 -251 830 -255 835 -5 6 -246 7 -254 2z m170 -336 c22 -82 42
-157 45 -166 5 -16 -4 -18 -91 -18 -73 0 -96 3 -93 13 3 6 24 83 48 170 24 86
45 156 47 154 1 -2 21 -71 44 -153z"/>
<path d="M9610 5553 c0 -331 3 -423 13 -424 11 -1 137 0 165 1 9 0 12 33 12
130 l0 130 54 0 54 0 94 -132 94 -132 108 -1 c59 0 109 3 111 6 2 3 -40 68
-95 144 l-98 140 27 16 c73 45 91 95 91 257 0 113 -3 133 -22 172 -25 50 -71
85 -130 101 -22 5 -138 11 -259 12 l-219 2 0 -422z m417 225 c20 -19 23 -31
23 -100 0 -85 -17 -117 -62 -119 -13 -1 -60 -3 -105 -4 l-83 -3 0 124 0 124
102 0 c91 0 104 -2 125 -22z"/>
<path d="M10450 5972 c-6 -2 -10 -153 -10 -422 0 -382 1 -419 17 -422 9 -2
130 -2 270 0 l253 3 0 84 0 85 -171 2 -171 3 -2 75 c-1 41 0 81 2 88 3 9 44
12 158 12 l154 0 0 85 0 84 -157 3 -158 3 1 33 c1 17 2 50 3 72 l1 40 170 0
171 0 -3 85 -3 85 -258 3 c-141 1 -262 1 -267 -1z"/>
<path d="M11334 5965 c-18 -51 -245 -805 -247 -819 -2 -19 4 -20 93 -17 52 1
98 6 101 9 3 4 14 40 25 80 l18 72 142 0 142 0 18 -70 c10 -39 21 -75 24 -81
4 -6 48 -11 104 -12 l97 -2 -6 25 c-11 43 -248 815 -252 819 -8 10 -256 6
-259 -4z m176 -330 c22 -83 43 -158 46 -167 5 -16 -4 -18 -91 -18 -87 0 -96 2
-91 18 2 9 24 86 47 170 23 84 43 151 45 150 1 -2 21 -71 44 -153z"/>
<path d="M4920 4933 c-360 -58 -602 -162 -665 -283 l-15 -28 48 -18 c220 -81
409 -182 690 -371 152 -102 169 -112 158 -94 -8 13 -46 259 -46 299 0 18 -9
45 -21 61 -25 35 -54 144 -74 286 -20 144 -23 155 -38 154 -6 -1 -23 -4 -37
-6z"/>
<path d="M10097 4709 c-62 -10 -126 -40 -164 -79 -56 -57 -63 -97 -63 -349 0
-236 5 -276 43 -332 45 -67 111 -96 239 -106 66 -5 249 11 269 23 4 2 3 21 -1
41 -4 21 -11 59 -14 84 l-7 46 -47 -9 c-26 -4 -86 -9 -135 -9 -97 -1 -130 12
-147 57 -14 35 -13 364 1 403 21 59 94 74 253 51 38 -6 71 -8 73 -6 2 2 10 40
17 84 l13 80 -31 7 c-50 12 -250 21 -299 14z"/>
<path d="M11527 4708 c-115 -15 -197 -80 -223 -175 -8 -33 -11 -118 -10 -273
1 -190 5 -231 19 -265 41 -91 125 -142 255 -151 78 -6 260 10 275 25 7 7 -6
119 -18 157 -2 8 -17 9 -52 3 -73 -14 -217 -13 -241 2 -37 23 -42 53 -42 254
0 191 0 194 24 222 23 27 28 28 113 28 48 0 113 -3 144 -7 l56 -8 11 82 c7 45
10 83 8 85 -17 17 -237 32 -319 21z"/>
<path d="M13173 4708 c-153 -17 -199 -81 -191 -268 5 -116 22 -151 90 -186 26
-13 86 -33 133 -44 101 -23 145 -44 146 -68 5 -69 -5 -118 -27 -126 -32 -12
-181 -7 -247 8 -38 9 -72 16 -76 16 -5 0 -14 -27 -20 -61 -7 -34 -15 -67 -17
-73 -3 -9 22 -21 73 -37 102 -31 298 -34 380 -6 100 35 140 118 131 275 -8
138 -37 166 -232 219 -71 19 -126 40 -133 50 -17 23 -16 95 1 119 13 17 26 19
128 17 62 0 132 -5 155 -11 l42 -10 6 47 c3 25 8 62 11 82 l5 37 -68 11 c-86
14 -210 18 -290 9z"/>
<path d="M8790 4274 l0 -426 223 4 c184 3 229 7 262 21 95 42 130 110 123 241
-4 74 -8 89 -33 122 -15 20 -41 42 -56 47 l-27 11 41 36 40 36 5 87 c7 136
-25 199 -117 232 -34 12 -90 15 -252 15 l-209 0 0 -426z m367 253 c22 -22 23
-131 1 -153 -10 -11 -39 -16 -94 -17 l-79 -2 -3 99 -3 99 81 -5 c57 -3 86 -10
97 -21z m15 -332 c22 -9 34 -50 32 -104 -3 -66 -19 -75 -129 -79 l-95 -4 0 94
c0 52 3 97 6 100 8 8 165 2 186 -7z"/>
<path d="M9530 4275 l0 -425 95 0 95 0 0 425 0 425 -95 0 -95 0 0 -425z"/>
<path d="M10572 4563 c33 -76 92 -210 130 -298 l70 -160 1 -125 2 -125 98 -3
97 -3 0 126 0 126 126 287 c69 158 128 293 131 300 4 10 -17 12 -98 10 l-103
-3 -75 -187 c-42 -102 -78 -185 -81 -183 -3 2 -39 87 -80 189 l-75 186 -102 0
-102 0 61 -137z"/>
<path d="M11980 4275 l0 -425 265 0 265 0 0 90 0 89 -147 0 c-82 0 -158 0
-170 1 l-23 0 0 335 0 335 -95 0 -95 0 0 -425z"/>
<path d="M12630 4275 l0 -426 98 3 97 3 2 423 2 422 -99 0 -100 0 0 -425z"/>
<path d="M13640 4615 l0 -85 110 0 110 0 1 -325 c1 -179 2 -331 3 -337 1 -9
30 -14 99 -16 l97 -3 0 340 0 340 113 3 112 3 2 83 1 82 -324 0 -324 0 0 -85z"/>
<path d="M3640 3927 c0 -9 57 -222 71 -265 l11 -33 64 2 c36 1 66 5 68 8 2 3
-46 71 -105 150 -60 79 -109 141 -109 138z"/>
<path d="M4360 3851 c27 -38 64 -95 81 -127 17 -33 38 -62 47 -66 37 -15 85
-8 118 17 18 13 53 33 79 43 36 14 44 21 33 29 -31 25 -287 140 -291 130 -2
-6 -25 0 -60 16 l-56 25 49 -67z"/>
<path d="M3720 3534 c0 -17 153 -520 160 -528 5 -4 30 -1 57 8 l49 16 61 130
c34 71 57 132 52 136 -5 3 -48 59 -95 125 l-86 119 -99 0 c-55 0 -99 -3 -99
-6z"/>
<path d="M5148 3530 l-67 -5 -203 -184 c-112 -101 -277 -260 -368 -352 -162
-165 -166 -170 -182 -233 -9 -35 -33 -107 -53 -160 -20 -53 -34 -100 -31 -104
2 -4 64 -6 136 -5 107 3 136 6 154 21 65 51 896 836 896 846 -1 6 -11 49 -24
96 l-23 85 -84 0 c-46 0 -114 -2 -151 -5z"/>
<path d="M9750 3431 c-90 -28 -127 -72 -142 -167 -12 -82 2 -196 30 -233 29
-40 87 -67 201 -95 58 -15 113 -34 123 -43 23 -21 25 -114 3 -137 -26 -26
-102 -31 -205 -13 -52 9 -105 19 -116 23 -20 5 -23 0 -38 -65 -9 -38 -16 -72
-16 -75 0 -16 146 -48 243 -53 242 -12 333 48 341 226 8 191 -23 231 -229 286
-135 36 -145 44 -145 103 0 70 14 84 91 87 35 1 105 -3 156 -9 l92 -12 8 70
c4 39 8 76 8 81 0 6 -25 15 -55 21 -64 13 -313 16 -350 5z"/>
<path d="M10435 3426 c-57 -18 -83 -36 -108 -76 -19 -31 -22 -49 -22 -155 0
-181 19 -203 212 -254 138 -36 149 -42 157 -87 25 -128 -64 -152 -334 -88 -25
5 -26 3 -41 -70 l-16 -75 46 -15 c89 -29 171 -39 274 -34 108 6 164 23 205 61
48 45 57 74 57 197 0 176 -22 200 -239 259 -67 18 -115 36 -123 47 -19 26 -16
88 6 115 18 23 25 24 123 22 56 -1 123 -6 148 -12 24 -5 46 -8 48 -6 6 5 25
156 20 160 -24 24 -345 33 -413 11z"/>
<path d="M11172 3422 c-67 -24 -120 -67 -152 -123 -24 -43 -25 -51 -28 -266
-3 -183 -1 -232 13 -278 33 -117 148 -185 309 -185 175 1 293 68 325 185 15
55 14 456 -1 507 -17 56 -78 121 -140 149 -74 32 -248 38 -326 11z m256 -185
l27 -27 3 -179 c4 -198 -2 -236 -39 -263 -52 -39 -163 -35 -205 7 -24 24 -24
26 -24 227 0 260 6 271 143 265 58 -2 71 -6 95 -30z"/>
<path d="M11975 3431 c-44 -11 -107 -46 -131 -73 -55 -60 -59 -77 -62 -318 -4
-251 3 -306 48 -368 45 -63 122 -95 239 -100 90 -4 257 13 265 27 5 8 -19 149
-27 157 -3 3 -44 2 -91 -3 -118 -12 -194 -3 -217 26 -17 21 -19 43 -19 230 l0
208 26 24 c24 23 31 24 132 21 59 -2 123 -4 142 -5 l35 -2 11 80 c6 44 11 81
10 82 -1 1 -31 7 -66 12 -73 12 -249 13 -295 2z"/>
<path d="M14835 3427 c-86 -29 -134 -67 -171 -137 -17 -31 -19 -60 -19 -285 0
-239 1 -252 22 -292 53 -99 170 -149 326 -140 51 3 109 10 129 16 60 19 120
71 151 130 l27 55 0 218 c0 128 -5 238 -11 263 -15 60 -75 126 -141 156 -43
19 -74 23 -163 26 -71 2 -124 -2 -150 -10z m243 -190 l27 -27 3 -184 c4 -214
-4 -247 -62 -271 -82 -35 -181 -7 -203 55 -15 43 -16 349 -1 392 17 49 61 70
141 66 58 -3 71 -8 95 -31z"/>
<path d="M8977 3423 c-4 -6 -181 -585 -253 -825 -5 -16 4 -18 95 -18 l100 0
16 58 c34 121 12 107 172 110 l140 3 23 -86 23 -85 100 0 c98 0 99 0 94 23 -4
12 -62 203 -129 424 l-123 403 -127 0 c-70 0 -129 -3 -131 -7z m172 -328 c23
-82 44 -158 47 -167 5 -16 -4 -18 -91 -18 -76 0 -96 3 -92 13 3 7 24 84 48
170 23 86 44 156 45 154 1 -1 21 -69 43 -152z"/>
<path d="M12470 3005 l0 -425 94 0 c78 0 95 3 100 17 4 9 6 200 6 425 l-1 408
-100 0 -99 0 0 -425z"/>
<path d="M13037 3423 c-4 -6 -218 -706 -253 -825 -5 -16 4 -18 95 -18 l100 0
16 58 c34 120 12 107 172 110 l140 3 22 -86 23 -85 100 0 c98 0 100 0 95 22
-3 12 -61 203 -129 425 l-123 403 -127 0 c-70 0 -129 -3 -131 -7z m173 -333
c24 -85 45 -161 47 -167 4 -10 -18 -13 -92 -13 -76 0 -96 3 -92 13 3 7 24 84
47 170 24 87 44 156 46 155 1 -2 21 -73 44 -158z"/>
<path d="M13532 3345 l1 -85 114 0 113 0 0 -340 0 -340 95 0 95 0 0 340 0 340
115 0 115 0 0 85 0 85 -324 0 -325 0 1 -85z"/>
<path d="M14300 3005 l0 -425 95 0 95 0 0 425 0 425 -95 0 -95 0 0 -425z"/>
<path d="M15440 3021 c0 -225 3 -416 6 -425 5 -13 23 -16 95 -16 l89 0 1 273
0 272 137 -272 137 -273 117 0 118 0 0 425 0 425 -90 0 -90 0 -1 -287 -1 -288
-58 120 c-32 66 -94 195 -139 288 l-80 167 -120 0 -121 0 0 -409z"/>
<path d="M3550 3249 c-52 -88 -96 -164 -98 -169 -2 -4 28 -28 65 -52 37 -25
96 -70 129 -101 34 -31 64 -57 66 -57 3 0 17 17 31 38 l26 37 -56 225 c-31
124 -59 228 -62 232 -3 3 -49 -65 -101 -153z"/>
<path d="M5113 2861 c-205 -201 -373 -368 -373 -371 0 -4 201 -4 283 0 4 0 7
6 7 13 0 26 98 213 145 277 69 94 176 193 277 257 48 31 88 61 87 67 0 6 -13
36 -27 67 l-27 57 -372 -367z"/>
</g>
</svg>
